HIERARCHY
ROOT Hips
{
    OFFSET 0.000000 0.000000 0.000000
    CHANNELS 6 Xposition Yposition Zposition Zrotation Xrotation Yrotation
    JOINT Spine
    {
        OFFSET -0.000000 6.993131 0.000000
        CHANNELS 3 Zrotation Xrotation Yrotation
        JOINT Spine1
        {
            OFFSET -0.000000 20.649729 0.000000
            CHANNELS 3 Zrotation Xrotation Yrotation
            JOINT Neck
            {
                OFFSET -0.000000 20.564924 1.869539
                CHANNELS 3 Zrotation Xrotation Yrotation
                JOINT Head
                {
                    OFFSET -0.000000 11.939490 -1.705642
                    CHANNELS 3 Zrotation Xrotation Yrotation
                    End Site
                    {
                        OFFSET -0.000000 21.320518 0.000000
                    }
                }
            }
            JOINT LeftShoulder
            {
                OFFSET 3.446977 19.850397 -0.038759
                CHANNELS 3 Zrotation Xrotation Yrotation
                JOINT LeftArm
                {
                    OFFSET 7.083611 0.000000 0.000000
                    CHANNELS 3 Zrotation Xrotation Yrotation
                    JOINT LeftForeArm
                    {
                        OFFSET 32.044487 0.000000 0.000000
                        CHANNELS 3 Zrotation Xrotation Yrotation
                        JOINT LeftHand
                        {
                            OFFSET 22.068741 0.000000 0.000000
                            CHANNELS 3 Zrotation Xrotation Yrotation
                            End Site
                            {
                                OFFSET 12.792312 0.000000 0.000000
                            }
                        }
                    }
                }
            }
            JOINT RightShoulder
            {
                OFFSET -3.365844 19.850397 -0.038759
                CHANNELS 3 Zrotation Xrotation Yrotation
                JOINT RightArm
                {
                    OFFSET -7.083611 0.000000 0.000000
                    CHANNELS 3 Zrotation Xrotation Yrotation
                    JOINT RightForeArm
                    {
                        OFFSET -32.044487 0.000000 0.000000
                        CHANNELS 3 Zrotation Xrotation Yrotation
                        JOINT RightHand
                        {
                            OFFSET -22.068741 0.000000 0.000000
                            CHANNELS 3 Zrotation Xrotation Yrotation
                            End Site
                            {
                                OFFSET -12.792312 0.000000 0.000000
                            }
                        }
                    }
                }
            }
        }
    }
    JOINT LeftUpLeg
    {
        OFFSET 8.528208 0.000000 0.000000
        CHANNELS 3 Zrotation Xrotation Yrotation
        JOINT LeftLeg
        {
            OFFSET -0.000000 -31.874865 0.000000
            CHANNELS 3 Zrotation Xrotation Yrotation
            JOINT LeftFoot
            {
                OFFSET -0.000000 -38.221939 0.000000
                CHANNELS 3 Zrotation Xrotation Yrotation
                JOINT LeftToeBase
                {
                    OFFSET -0.000000 -5.543335 12.792312
                    CHANNELS 3 Zrotation Xrotation Yrotation
                    End Site
                    {
                        OFFSET -0.000000 0.000000 3.411283
                    }
                }
            }
        }
    }
    JOINT RightUpLeg
    {
        OFFSET -8.528208 0.000000 0.000000
        CHANNELS 3 Zrotation Xrotation Yrotation
        JOINT RightLeg
        {
            OFFSET -0.000000 -31.874865 0.000000
            CHANNELS 3 Zrotation Xrotation Yrotation
            JOINT RightFoot
            {
                OFFSET -0.000000 -38.221939 0.000000
                CHANNELS 3 Zrotation Xrotation Yrotation
                JOINT RightToeBase
                {
                    OFFSET -0.000000 -5.543335 12.792312
                    CHANNELS 3 Zrotation Xrotation Yrotation
                    End Site
                    {
                        OFFSET -0.000000 0.000000 3.411283
                    }
                }
            }
        }
    }
}
MOTION
Frames:    14
Frame Time:    0.008333
116.013313    70.818863    23.680937    3.670068    0.004638    88.616768    11.969439    -5.895874    -0.022492    -14.080817    7.897026    0.335885    2.495459    4.864900    5.054345    -1.761572    13.315965    4.955517    4.895592    7.903483    7.532728    -79.280510    42.569740    10.664702    1.585679    -23.719000    -35.040337    3.914931    -23.485514    -7.201141    8.344305    11.383739    2.208462    47.470207    48.570904    13.136373    -14.068677    -6.678926    41.708111    20.904070    -2.706245    -7.592865    -10.465602    -27.306742    -3.367318    8.574146    46.443413    4.584763    0.164914    -11.279263    -1.466746    0.000000    0.000000    0.000000    -13.371138    -15.240982    6.092023    -179.036652    46.127251    -169.789383    18.490124    -29.003466    18.000103    0.000000    0.000000    0.000000    
116.313866    71.322800    23.600155    3.688159    -0.076414    88.900734    12.080013    -6.097462    -0.003147    -14.087381    8.043636    0.346705    2.902960    4.820448    4.924507    -2.104750    13.332154    4.767566    5.134760    8.021872    7.238521    -79.584755    42.983196    10.508528    1.501816    -23.969631    -35.592129    4.294182    -23.763018    -6.841860    8.498741    11.277523    1.844125    47.507698    48.462440    12.988306    -14.291502    -6.781828    41.649906    21.465733    -2.926476    -8.413335    -10.352051    -26.031933    -3.429472    8.308416    44.833092    4.057336    0.223475    -10.670614    -0.893056    0.000000    0.000000    0.000000    -13.881387    -15.521695    5.347670    -179.274673    46.845528    -169.104477    16.349781    -28.860661    15.582904    0.000000    0.000000    0.000000    
116.583191    71.845306    23.531256    3.644356    -0.236464    89.127533    12.209633    -6.215075    0.006813    -13.962605    7.992249    0.321777    3.443404    5.047696    4.879578    -2.827176    12.970440    4.642701    5.243449    8.047361    6.955865    -79.927124    43.377529    10.508874    1.575208    -24.007814    -35.960896    4.437444    -23.785210    -6.920244    8.673316    11.316093    1.401806    47.259926    48.247093    13.079351    -14.459809    -6.901337    41.504959    21.892958    -3.154528    -9.027901    -10.200761    -24.682133    -3.128352    8.527534    42.851421    3.440467    0.209686    -10.046841    -0.788533    0.000000    0.000000    0.000000    -14.287321    -16.024883    4.606308    -179.469574    47.450836    -168.664185    18.347950    -25.826288    15.196356    0.000000    0.000000    0.000000    
116.885330    72.348770    23.468679    3.762825    -0.460564    89.360474    12.319743    -5.786927    -0.108574    -13.655544    6.914905    0.095463    3.169130    5.971199    4.831371    -2.419404    12.840518    4.656461    4.815119    8.298995    6.562897    -79.981392    43.669830    10.852505    1.363092    -24.057657    -36.280682    4.771467    -23.899128    -6.564165    8.912498    11.800309    1.645496    47.453968    47.812195    12.382068    -14.702804    -7.029159    41.179173    22.195671    -3.337081    -9.407621    -10.079451    -23.338150    -2.915429    8.841772    41.215893    2.397470    0.148230    -9.275416    -0.129460    0.000000    0.000000    0.000000    -14.761354    -16.449451    4.081832    179.831009    47.912827    -166.631378    17.113503    -24.720343    7.762920    0.000000    0.000000    0.000000    
117.167755    72.876236    23.469128    3.815848    -0.704489    89.689392    12.390059    -6.114344    -0.159277    -13.461388    7.648974    0.080589    3.667128    5.123973    4.709889    -2.790643    13.192433    4.451917    5.462428    8.190022    6.553482    -80.557655    44.631771    10.597421    1.326434    -24.156765    -36.914970    4.590740    -23.991287    -6.534315    8.737182    11.414804    0.746156    46.959595    48.256260    13.082633    -15.072407    -7.336070    41.150208    22.294119    -3.596637    -9.807687    -9.788139    -22.040369    -2.637434    8.996441    39.464226    1.563850    0.039777    -8.353898    0.181140    0.000000    0.000000    0.000000    -14.957026    -16.915724    3.415987    179.159943    48.263729    -165.311050    15.281569    -25.200657    6.782501    0.000000    0.000000    0.000000    
117.444679    73.372330    23.534405    3.760097    -1.350822    90.522751    12.600387    -6.335816    -0.496760    -12.895823    7.470737    -0.351326    3.769059    5.064473    4.720290    -2.789242    13.667794    4.462247    5.282878    8.358182    6.341523    -80.357483    44.681126    10.320780    1.127536    -23.757711    -37.227493    4.067310    -23.626877    -6.684281    8.865864    11.395223    0.564840    46.946175    48.172813    12.681074    -15.564837    -7.463722    41.019592    22.621040    -3.637940    -10.064543    -9.167228    -20.967386    -2.654561    9.158443    37.865856    0.606115    0.078283    -7.638334    0.354938    0.000000    0.000000    0.000000    -14.784142    -17.342476    1.902571    178.693985    48.727417    -164.714951    15.518852    -22.160723    6.295600    0.000000    0.000000    0.000000    
117.665054    73.895493    23.488396    3.555043    -1.544509    90.672493    12.697099    -6.633459    -0.492075    -12.687723    7.527623    -0.392657    3.903852    4.963804    4.633646    -2.803214    13.686640    4.354625    5.514600    8.345128    6.165171    -80.590317    45.240475    10.005286    1.241087    -23.540075    -37.094013    3.209880    -23.344296    -7.261385    8.750995    11.123557    0.188117    46.932774    48.257248    12.597816    -15.938353    -7.654850    41.002590    22.584156    -3.694407    -10.100421    -8.929002    -19.945148    -2.489622    9.131108    36.043888    0.226141    -0.359814    -6.406242    0.534146    0.000000    0.000000    0.000000    -15.329374    -18.549667    1.469178    177.692154    48.772366    -162.920288    13.974507    -21.061728    4.424453    0.000000    0.000000    0.000000    
117.948746    74.392029    23.505276    3.487768    -1.941658    91.069801    12.627995    -6.914041    -0.487284    -12.053417    7.505841    -0.459489    4.671706    5.352778    4.472866    -3.801016    13.312412    4.087622    5.686572    8.470800    5.654625    -80.629402    45.435768    9.566972    1.242196    -22.942392    -37.103325    2.798074    -22.718519    -7.143692    8.933153    11.185570    -0.444258    46.403580    48.145657    12.646445    -16.233540    -7.686673    41.038326    22.613611    -3.692362    -10.506212    -8.432824    -18.816887    -2.335190    9.139817    34.302513    -0.511843    -0.242729    -5.557754    0.629932    0.000000    0.000000    0.000000    -15.431443    -19.302185    0.112605    177.168091    49.824623    -174.216370    8.715543    -15.910903    9.626777    0.000000    0.000000    0.000000    
118.207893    74.871468    23.520262    3.389587    -2.281880    91.389030    12.540982    -7.136287    -0.549806    -11.471893    7.293175    -0.601226    4.609900    5.642387    4.345790    -3.478109    13.429937    3.985718    5.808582    8.512578    5.246982    -80.947739    45.952217    9.475938    1.461829    -22.583488    -36.860474    1.922827    -22.246586    -7.346128    8.961346    11.191051    -0.652303    46.321136    47.952057    12.308916    -16.481640    -7.931716    40.924160    22.753229    -3.759491    -9.928294    -7.953116    -17.696249    -2.102190    9.077192    32.523521    -1.344100    -0.274110    -4.692347    0.963890    0.000000    0.000000    0.000000    -15.715677    -20.138906    -0.500575    176.026550    49.245411    -169.328781    4.578867    -17.078815    2.031499    0.000000    0.000000    0.000000    
118.483185    75.332710    23.553865    3.341864    -2.666315    91.705788    12.394681    -7.582182    -0.516062    -10.852674    7.745010    -0.603637    5.036360    5.504230    4.205832    -3.670409    13.305861    3.782671    6.218476    8.258081    4.763392    -81.236748    46.010937    9.184464    1.122162    -22.096521    -36.951057    1.681058    -21.852577    -7.661289    9.029177    10.875013    -1.379799    45.901974    47.995770    12.287220    -16.676819    -8.147191    41.100697    22.355108    -3.759245    -9.537847    -7.354405    -16.533392    -1.969406    8.815969    30.782774    -1.739776    -0.321655    -3.893832    1.041986    0.000000    0.000000    0.000000    -15.835140    -20.856987    -1.548055    175.508850    48.745296    -165.917023    -4.264703    -15.370769    -2.953847    0.000000    0.000000    0.000000    
118.766167    75.767578    23.576668    3.387894    -2.977869    91.998833    12.188851    -7.737803    -0.563866    -10.240063    7.687060    -0.701318    5.541814    5.806063    4.109749    -4.079908    13.200559    3.632654    6.360470    8.692383    4.429710    -81.124390    46.781025    8.393323    1.712973    -21.924473    -36.598160    0.837446    -21.447796    -7.409564    9.175374    10.917689    -1.763254    45.616749    47.648342    12.039837    -16.768290    -8.563221    41.407135    21.676800    -4.048189    -9.614220    -6.844949    -15.223251    -1.649169    8.740318    28.971325    -2.669772    -0.398581    -3.178464    1.329905    0.000000    0.000000    0.000000    -16.168312    -21.476412    -2.390627    174.812714    47.940151    -161.369614    -10.018384    -14.785930    -8.971020    0.000000    0.000000    0.000000    
118.991402    76.142113    23.612627    3.215917    -3.220278    92.151596    11.834206    -8.091220    -0.452892    -9.639076    7.783458    -0.635468    6.278096    6.030679    3.921736    -4.544918    12.850456    3.351054    6.747150    8.969715    3.865642    -80.853775    46.929253    7.538754    1.616869    -21.320156    -36.636654    0.693961    -20.861172    -7.272630    9.412540    10.724032    -2.332403    45.239807    47.580742    11.761127    -16.894960    -8.897746    41.755516    20.842434    -4.197863    -9.575114    -6.384836    -14.312754    -1.049437    8.709703    27.325426    -3.600512    -0.498667    -2.445499    1.508745    0.000000    0.000000    0.000000    -16.396664    -22.406528    -3.248014    174.414810    46.862549    -157.423233    -13.028200    -15.030601    -12.790044    0.000000    0.000000    0.000000    
119.300690    76.498817    23.655472    3.296873    -3.505620    92.508629    11.278132    -8.412516    -0.475418    -8.598136    8.104767    -0.697099    6.755308    6.039574    3.742051    -4.946456    12.814911    3.105183    6.982366    8.940642    3.262863    -81.071884    47.531540    7.149660    1.773272    -21.208666    -36.455414    -0.052437    -20.659475    -7.249099    9.429811    10.493215    -2.986387    44.911537    47.401592    11.412960    -17.107576    -9.182035    42.243900    20.556454    -4.226514    -9.209555    -5.785177    -13.117989    -0.655861    8.405351    25.753025    -4.474370    -0.469393    -1.909785    1.873891    0.000000    0.000000    0.000000    -16.715158    -22.813805    -3.997266    173.840988    45.532890    -151.854080    -17.899109    -15.306206    -20.644135    0.000000    0.000000    0.000000    
119.550476    76.807404    23.693768    3.275175    -3.713061    92.773094    10.754761    -8.496856    -0.453164    -7.823583    7.859847    -0.715966    7.353877    7.007630    3.412368    -5.270639    11.596096    2.702029    7.120447    9.225212    2.655253    -80.561279    47.471008    6.203021    1.367278    -20.661192    -36.302917    0.026399    -20.242020    -6.757854    9.708570    10.446766    -3.489930    44.588062    47.317200    10.944923    -17.522614    -9.663497    42.478687    20.685392    -4.405048    -8.592361    -5.183347    -11.904960    -0.364805    7.873774    23.887360    -4.633129    -0.388047    -1.427450    1.796416    0.000000    0.000000    0.000000    -17.092325    -23.440025    -4.587084    173.197296    44.416008    -147.479691    -20.275974    -13.877852    -26.285799    0.000000    0.000000    0.000000    
